
    <svg
      width="24"
      height="24"
      viewBox="0 0 24 24"
      fill="none"
      xmlns="http://www.w3.org/2000/svg"
    >
      <path
        d="M12 13.501C12.8284 13.501 13.5 12.8294 13.5 12.001C13.5 11.1725 12.8284 10.501 12 10.501C11.1716 10.501 10.5 11.1725 10.5 12.001C10.5 12.8294 11.1716 13.501 12 13.501Z"
        fill="#8999B0"
      />
      <path
        d="M15.29 18.1211L14 16.7811L13.93 16.7111L12.66 15.4411C12.4585 15.4764 12.2546 15.4965 12.05 15.5011C11.5862 15.5077 11.1257 15.4221 10.6953 15.2492C10.2648 15.0762 9.87307 14.8195 9.54275 14.4938C9.21243 14.1681 8.95014 13.7801 8.77113 13.3521C8.59212 12.9242 8.49996 12.465 8.50001 12.0011C8.50465 11.7965 8.5247 11.5926 8.56001 11.3911L6.56001 9.39109L5.00001 7.87109C3.87133 8.93456 2.90442 10.1575 2.13001 11.5011C2.04224 11.6531 1.99603 11.8256 1.99603 12.0011C1.99603 12.1766 2.04224 12.3491 2.13001 12.5011C2.76001 13.5911 6.13001 19.0011 12.02 19.0011H12.27C13.3776 18.9682 14.4708 18.7415 15.5 18.3311L15.29 18.1211Z"
        fill="#8999B0"
      />
      <path
        d="M8.59 5.76134L11.39 8.56134C11.5915 8.52603 11.7954 8.50598 12 8.50134C12.9283 8.50134 13.8185 8.87009 14.4749 9.52646C15.1313 10.1828 15.5 11.0731 15.5 12.0013C15.4954 12.2059 15.4753 12.4098 15.44 12.6113L18.12 15.2913L18.96 16.1313C20.1028 15.0707 21.0834 13.8476 21.87 12.5013C21.9578 12.3493 22.004 12.1769 22.004 12.0013C22.004 11.8258 21.9578 11.6534 21.87 11.5013C21.23 10.3913 17.71 4.82134 11.73 5.00134C10.6225 5.03419 9.52924 5.26096 8.5 5.67134L8.59 5.76134Z"
        fill="#8999B0"
      />
      <path
        d="M20.71 19.2912L19.41 18.0012L17.41 16.0012L7.89 6.47116L6.42 5.00116L4.71 3.29116C4.61676 3.19792 4.50607 3.12396 4.38425 3.0735C4.26243 3.02304 4.13186 2.99707 4 2.99707C3.86814 2.99707 3.73758 3.02304 3.61575 3.0735C3.49393 3.12396 3.38324 3.19792 3.29 3.29116C3.1017 3.47947 2.99591 3.73486 2.99591 4.00116C2.99591 4.26746 3.1017 4.52286 3.29 4.71116L5.53 7.00116L7.28 8.70116L14.59 16.0012L14.66 16.0712L16 17.4112L16.59 18.0012L19.29 20.7112C19.383 20.8049 19.4936 20.8793 19.6154 20.9301C19.7373 20.9808 19.868 21.007 20 21.007C20.132 21.007 20.2627 20.9808 20.3846 20.9301C20.5064 20.8793 20.617 20.8049 20.71 20.7112C20.8037 20.6182 20.8781 20.5076 20.9289 20.3857C20.9797 20.2639 21.0058 20.1332 21.0058 20.0012C21.0058 19.8692 20.9797 19.7384 20.9289 19.6166C20.8781 19.4947 20.8037 19.3841 20.71 19.2912Z"
        fill="#8999B0"
      />
    </svg>
