<svg
  width="24"
  height="24"
  viewBox="0 0 24 24"
  fill="none"
  xmlns="http://www.w3.org/2000/svg"
>
  <circle cx="12" cy="12.001" r="1.5" fill="#8999B0" />
  <path
    fillRule="evenodd"
    clipRule="evenodd"
    d="M11.73 5.00134C17.71 4.82134 21.23 10.3913 21.87 11.5013C22.0486 11.8107 22.0486 12.1919 21.87 12.5013C21.01 14.0013 17.8 18.8613 12.27 19.0013H12.02C6.13001 19.0013 2.76001 13.5913 2.13001 12.5013C1.95137 12.1919 1.95137 11.8107 2.13001 11.5013C3.00001 10.0013 6.20001 5.14134 11.73 5.00134ZM8.50001 12.0013C8.50001 13.9343 10.067 15.5013 12 15.5013C13.933 15.5013 15.5 13.9343 15.5 12.0013C15.5 10.0683 13.933 8.50134 12 8.50134C10.067 8.50134 8.50001 10.0683 8.50001 12.0013Z"
    fill="#8999B0"
  />
</svg>
